<svg xmlns:rdf="http://www.w3.org/1999/02/22-rdf-syntax-ns#" xmlns="http://www.w3.org/2000/svg" xml:space="preserve" height="13.002" width="13.047" version="1.1" y="0px" x="0px" xmlns:cc="http://creativecommons.org/ns#" xmlns:dc="http://purl.org/dc/elements/1.1/" viewBox="0 0 13.046696 13.001627"><g fill="#fff" transform="matrix(.20584 .20584 -.20584 .20584 8.5554 -9.0983)"><path d="m53.6 36.5c-1.1 0-2 0.9-2 2v10.3c0 1.7-1.4 3.2-3.2 3.2h-31c-1.7 0-3.2-1.4-3.2-3.2v-10.3c0-1.1-0.9-2-2-2s-2 0.9-2 2v10.3c0 3.9 3.2 7.2 7.2 7.2h31c3.9 0 7.2-3.2 7.2-7.2v-10.3c0-1.1-0.9-2-2-2z"/><path d="m24.1 25.7 6.9-6.9v22.3c0 1.1 0.9 2 2 2s2-0.9 2-2v-22.3l6.9 6.9c0.8 0.8 2 0.8 2.8 0s0.8-2 0-2.8l-10.3-10.3c-0.3-0.4-0.8-0.6-1.4-0.6-0.5 0-1 0.2-1.4 0.6l-10.3 10.3c-0.8 0.8-0.8 2 0 2.8 0.7 0.8 2 0.8 2.8 0z"/></g></svg>
